<mxfile host="65bd71144e">
    <diagram id="HIP3nbAZw_EuaXWnEj3U" name="Page-1">
        <mxGraphModel dx="820" dy="362" grid="1" gridSize="10" guides="1" tooltips="1" connect="1" arrows="1" fold="1" page="1" pageScale="1" pageWidth="850" pageHeight="1100" math="0" shadow="0">
            <root>
                <mxCell id="0"/>
                <mxCell id="1" parent="0"/>
                <mxCell id="7" value="http://ics2o.mths.ca" style="swimlane;whiteSpace=wrap;html=1;" parent="1" vertex="1">
                    <mxGeometry x="30" y="40" width="760" height="480" as="geometry"/>
                </mxCell>
                <mxCell id="8" value="&lt;font style=&quot;font-size: 24px;&quot;&gt;Sum of natural numbers using for loop, in JS&lt;/font&gt;" style="whiteSpace=wrap;html=1;" vertex="1" parent="7">
                    <mxGeometry y="20" width="760" height="60" as="geometry"/>
                </mxCell>
                <mxCell id="9" value="&lt;span style=&quot;font-size: 12px;&quot;&gt;Enter in the space which integer you want in this equation&lt;/span&gt;" style="text;html=1;align=center;verticalAlign=middle;resizable=0;points=[];autosize=1;strokeColor=none;fillColor=none;fontSize=24;" vertex="1" parent="7">
                    <mxGeometry y="80" width="340" height="40" as="geometry"/>
                </mxCell>
                <mxCell id="10" value="" style="endArrow=none;html=1;fontSize=12;" edge="1" parent="7">
                    <mxGeometry width="50" height="50" relative="1" as="geometry">
                        <mxPoint x="20" y="160" as="sourcePoint"/>
                        <mxPoint x="320" y="160" as="targetPoint"/>
                    </mxGeometry>
                </mxCell>
                <mxCell id="11" value="Enter integer here!" style="text;html=1;strokeColor=none;fillColor=none;align=center;verticalAlign=middle;whiteSpace=wrap;rounded=0;fontSize=12;" vertex="1" parent="7">
                    <mxGeometry x="10" y="130" width="130" height="30" as="geometry"/>
                </mxCell>
                <mxCell id="13" value="CALCULATE!" style="rounded=0;whiteSpace=wrap;html=1;fontSize=12;" vertex="1" parent="7">
                    <mxGeometry x="20" y="180" width="120" height="50" as="geometry"/>
                </mxCell>
                <mxCell id="14" value="" style="shape=image;verticalLabelPosition=bottom;labelBackgroundColor=default;verticalAlign=top;aspect=fixed;imageAspect=0;image=data:image/jpeg,/9j/4AAQSkZJRgABAQAAAQABAAD/2wCEAAkGBxIQERUQEBEVFhUVFhgYFxcYGBUXFhcXGhgYGBsdGhodHCggGBslGxUYIjEhJSkrLi4uIB8zODMsNyotLisBCgoKDg0OGhAQGi8lICU1Li0tNi8tLTAvKy0tLS0tLS4vNS0tLS0tLS0tLS0tLS0tLS0tLS0tLS0tLS0tLS0tLf/AABEIAKgBKwMBEQACEQEDEQH/xAAbAAEAAgMBAQAAAAAAAAAAAAAABAUCAwYBB//EAEsQAAEEAQMCAwQFBQsKBwAAAAEAAgMRBAUSIRMxBkFRFCIyYQdxgZGhFSNCUrEXMzRTcpLBwtHT8BY1VWJzg5OjsuEkQ1R0gqLx/8QAGgEBAAMBAQEAAAAAAAAAAAAAAAEDBAIFBv/EADwRAAICAQIEAgcGBQMEAwAAAAABAgMRBDESEyFBYXEFFDJRgZHBFSJSobHRMzRCgpJicuEjovDxJDVD/9oADAMBAAIRAxEAPwD6pm+J4os+HTtrnSSxPlJFbYmMunPs9nFrgK8x80BVT/SPieytyoQ+Vr8sYrGgEF7y4Aln6w2W8evA4PYC+j8Q4zmwubM1zciR0URFkOkaHktvyI6bhz5iu5QFTqH0iaZjtD5coNDi8N9yR24xvdG6trTdOYR9x7EWBo/dN0wcOne1xI2sMOQJHWLBazZuIPrVIDbjfSPpskjY2ZDjvkEQf0phH1XchhkLA0OPpaAtNQ8TYsGTDhyzNE85/Nxiy496Jr4QaIBNWftQGzK8Q4sWTFhvmaJ5r2R8lxABNmvgFA0XVdGrQGM/iTFZlswHTNGQ9pc2PmyB8+wJAJAJvgoD3QvEeJnBxxZ2SbPiaOHtu63NNOF0aNUfJAQfHfi6LScX2mVpeS4MZGDRe481dGgGgm/l6kICr1T6T8KBuIbc9+X0nNibRkjZIAQ54B4qwNt2T27IDopfEWK3JGEZ2+0Frn9McuDWgON18Jo2AaJF1aAoD9KWlWQzJdJtG49OHIeA3zJIZQArugL7I8R4kZb1MiNofC6driQGGJpYC7f8NfnG1zzaAjaH4yw82Uw40jnuDS6+nK1jmggEte5oa7uOx58kBfoAgCAIAgCAIAgCAIAgCAIAgCAIAgCAIAgCAID5H470WeXU5XxZ+JDHPjsx5nSPAnhjvc9rG3+mKN/MjjuQKvw94bGNkDfqGK/Gwus/BYZYgZJpAS10tdi0kC/VooVdgZ+FdEkhOn+06pjOix+rK6HfABDM5p2Dc03Md0jiTdcccdwLPEwoRpmn4Mk+PTMiN+Y0TwkuaHvkPJdTgZOmXVzV1ZQEXXRI/V5M2OSGRn5kQvbqDMZjWMFlsrWgvkt5cfq/ACHNgvl1STL3YjCMtssU78uJ0TIW7W03Hbdyva1xJdVFwog+8AHscr3TRk4DZZcoTHUZMuOSSmSh8fSjA3N2Ma1oaSG9/XgDzM0OWXJGoHUsVmQ/LbI4Ndjl8MTS6Nu2VxILRBXubTbiCbrgDHTcF+PnOzJ3wZLZMt87GMzYoxBIXva2SRprqgMLaAd7vI28lAX3gaJ0b8efPzsJhx4nxtjikjc9/UILjNJdUDZEbfdBo3wgJPi3Aw9T1DHdlZWO7ChgltnWYC6Z52806x7tOBHYtHqgKrK8E6VEcQYORjN6WUyaeSSZrpXsjBcGA+QLqFAAdibpAV+HocrcrH1B2pYonflGbJ2vx90LHte1zWyOLuo3p7WBtUC4n5gC61QB0OrvjnxzkZbhFDeRE1pxgxjAGnd7pAfKSCBbvsKAr8fR2se52bl4uoRxYIhhhMuPA1z97SWNA+EARtp7jfb7AO2+jODpY74+pDXU3MghmM7MaMtAEfUcSTy1zvSya4QHYoAgCAIAgCAIAgCAIAgCAIAgCAIAgCAIAgCAIDykApAEApAEAQBAEApAEAQCkAQCkAQCkB6gCAIAgCAIAgPLQHqAIAgCAIAgCAIAgCAIAgCAIAgMJ3U1xHkCfwXE5cMW0czeItlNhT5csbZGmEBwsWH3+1eXRZrbq1YnHr4P9zz6bNVbWppx6+Zvys6RpZC0NdM4We4Y0DufWrV92otg41RSc38l4l1t9kXGuKzN/JeJqmzJ8enT7HRkgFzQQW350e4Vc79Rp2pXYcdm10x/wcSuuoxK3Dj4djLIy5zOYYjGAGB1uDj3NeRU2X6iWodVTWyfVMmdtzu5deNs9T2HNmZMyGcMPUB2uZY5As2CphqLq741XYfFnDXgI3WwtVduOu2PAw0fVXyyvjeAKvbQIsB1G+fqXGh107rZ1zW2cfB4ONJq5W2ShJbbHs+qOGUyBoG0/EebuiaHP1KbNbNauNEV07+Z1PVyWpjUtu5J0rLdKZd1e5I5gr0Fd/nytGk1ErXPi/peEXae52OeezwaZdQeHzt92oow5vB7kE889uFVLVTVlsfwrKK5aiSnZH8KyTtPmL4mPdVuaCa7WQtWmsdlMZvdpM0UTc64yfdEXWs50TWiIAveaaDyKAsqjXamdMUq1mT2+pTq751RSrWZPb6knT8oSxtkH6Q+4+Y+9aNPcrqozXcuotVtamu5G1jKkjMbYttvft94Ejt8is+tvtr4I14zJ46lOqunDgUMZbx1PYBlbh1HQ7fPaHX9llTUtXxLmOOO+E/3JrWp4vvuOPDJHZmTzud0NjY2kjc4ElxHoB5KmN+ovb5OFFdMvrl+BUrrrm+VhJdMvubMTUH7nxTNAka3cCL2ub6j05XdOqs4pVWrEks9NmjuvUT4pV2L7yWfBo0YORlyxtkaYQHeRa++9evyVGnt1t9SsTj18H+5VTZqbYKacevmTdHzjM0lwAcxxY4DtY9Fr0Wpd8G5LDTafmvcaNLe7YtyWGnhmnVJciMPkYYtjRdEO3cDnzpVayzU1qVkHHhSz1TyV6md9alOGMJd85MIMjJ6fVeYtvTLgAHXe2x5qKrNVy+ZNxxjPRP9yK7NRwcyeMYz0z7ibps5kiY91W5oJrstWltdtMbHu1k0UWOyqMn3RVu1aXodQbdxl2djVXXqvPlrrfV+YsZ4uHw3wYnrLOTxrGeLH54JQbmeboPuf/atCjrs9XH5P9y9LV56uP5lk51C/Rbm8LJrbwslLjZeTMzrR9INN7WEEkgepvgryqr9XfDm18OOy7nnwt1FseZDhx7jbLqb9kDtm0ySBrmuBsd7rt6cK2esmoVS4cOTw0zuWpmoweMcTSeexK1nKdDC6RlWK79uSB/StGtulTS5x3RdqrXVU5x7EHM1Z8eQyOm7HBpcaNguJHe+10sd2vnXqYVtLheM/EzW6yVd8YY+69/ib9f1J0DAWAFxPF8igLJ7q30lrJaavMN3/wCM712qlRDMV1LGB9tBPcgH7wt0JZimzZB5imVbc2adzuhsaxpLd7gSXEd6A8l561F98nyMKK6Zfd+BiV110nysJLpl9zZhZz+oYZmgPA3Atva4fK+yso1NnMdNqSkuqxs0d03z43VYvvb9NmiNgZWXMwSNMIBvgh98GvVZtPdrb61ZFxw/B/uU0W6q2HGuH8y3xt+0dSt3ntuvstepXx8K49++NjfDi4Vxbm5WHYQBAasr4HfyT+xV2/w5eTOLPYfkUWj6UHwMd1ZRY7NeQBz5DyXkaHRRnp4S45be/oebo9KpURlxS+Zvy3iHLZI/hjo9m49g4G+T81dc1RrI2T9lrhz7nn6ltrVWpjOWzWM+I8QZbHRGFjg58hAaAQfMG+Ow4T0lfCVPKg8yl0S+o11sZVOuLy5dEaXYm/KLN721C3lpo96VLo5msceJrEVsyp08epceJr7q2PNPiEOSWTEuc4fm5HEmx5jnsf8AHmmmgqNU4WvLfstvt3XmKIcnUONnVv2W/d7iLAem0ZH6k7w7+S7g/jSz1vlQV/4ZyT8myiD5cVd7pSz5Nm3HYepjSO+KWSR5+ot90fdSshF8ymb3k5P8un5FkIvmVTe8m3+XQl6RkNjknY9wa7ql3JqwQKK06KyFdlsJvD4s9fdgv0s4wnZCTw85+Bo6ge7Mkby3phoI7EhpulSpKyeosjtjHyRVlTlfOO2MfkT9JzYxBGDIwEMbYLhY4+tbNFfUtPBOS2Xc1aW6tUwXEtl3Ib+rNkufDsqIbBvurPLiK8/JZnzb9VKdWMQ6dfe9zO+ZbqHKvGI9Ovve5noRdFJJjyVf742r20e4F+V/0rrQOVNs6LMZ9peT3OtG5V2Spn5ryZn4hj3ugbZFyVYNEceRXXpKHHKqOd5dvInXx4pVx/1fQl4umiM7hJI7ginOLh93rwtVWkjW8qTfm8mivTKDypN+byQvD+Q2NhgeQ17HOsE1YJsEeo5WT0dZCqDpm8Si3+u5n0NkYQdUnhpsx6gmyXPj5bHE5pcOxcfIeq54lfqnOHWMYtN+LOeJW6hyhtGLXxZEwNMe/Fa+OaQOINN3HZ3PFeVrNptHOzRqVdkk8bZ6FFGlnPTKUJtPz6Fr4ekYYQGN2kEh7e5DvO16Po2dcqcQWMbr3PubtDKDqxFYxuvE3a3/AAeX+Q79it1/8tZ5M71f8CfkzW3+Cf7n+ouI/wAp/b9Dlfyv9v0IOl6Qx8LHF0gJaDw8gfYFj0eghPTwk5S6pf1MzaXSQlTFtvb3sgFo9jAvjr1fnW4+axuKWi4c9OP6mVpLSY/1fUs2YsDSD7U7gg8zCvtXowo08ZJq1/5G6NVKafMf+RcSuppIF0Ca9fkvTk8Rb3N0nhN7nPQw48jerHKYXHlwD6o+dgrxIV6W2HNrm4Pvh4w/FHlRhp7I8yEuB9+u3wMJcl74IJZOQycEuqraLAcuLLZz09VtnaXV+HVZOZWylRXZPtLfw95M8Q5bHwFjHtc55aGgEEn3gtfpK6E6OCLy5YxjzNGuthKnhi8t4x8zTqGL1J5I/P2cV/KDrH4hUainm6iUP9Cx5p9Cq+rmXyj34fqRJ5jkRSTHtHEGf/M0X/sAWeyx6mmdr/pjj4vcpss59U7H/THHx7nT43723+SP2L361/015Hs1+wvIqdBnbE10EhDXse7gmrBNgj1C870fZGqMqZvEk3v3TecmHRTjWnVN4ab/ADAkE2WHRm2xMIc4drPlfmnGr9XxQ6qKab7ZfYcSt1PFDaKeX4sjaFpgkga4yStsnhryB3I7Kj0do1ZQpcUlvs+m5TotKp0qXFLvs/E6ONlADngVz3XtxWFg9ZLCwZLokIAgPHC+Coaz0YMYomtAa0AAdgOAFEYxisRWERGKisISxNcNrgCD5EWElCMliSyiJRUliSyacbAijNsja0+oHKqq01NTzCKXkjiFFdfWMUjaIW7t+0bqq65r0v0VvBHi4sdTvhWeLHU8lx2OILmglpsWLo+o9FEq4yaclnGwlCMmm1seeys2luxu0myKFE/Meajkw4XHCwyOXDDjjoZGBvunaPd+Hj4fLj0U8uPR4228CeCPTptsasnBik5fG1xHmRyuLdNVb1nFPzOLKK7PbimbGY7A3YGgN7UAK+5dxqhGPCksHSrio8KXQ0fkuD+Jj/mt/sVPqWn/AAL5Ir9Vp/AvkSIYGssNaBZs0Ks+v1q6FcYeysFsYRj7KwDA0uDy0bhwDXIH1pwR4uLHUcEc8WOokha4guaDtNix2PqPRTKEZNNrbYOKljK2Ni6OiPk4Mcnxsa76wLVNunqt9uKZVZTXZ7cUzZFA1rdrWgD0AoLuNcYR4YrCO4wjFYS6HsUTWANaAAOwHACmMIxWIrCJjFRWEjyOBrSXNaAXdyAAT9fqojXGLbS6vciMIxbaW5lIwOBa4Ag8EHsQupRUlh7EtJrDPOk3btobaqvKu1V6KOFY4cdBwrGOwjjDQGtAAHYDgBIxUVhLoEklhGs4UZbsMbdt3VCr9a9Vw6K3HhcVg4dUHHhwsGr8lwfxMf8ANb/YqlotOv6F8kceq0/gXyJdLUXkWXTIXO3OiYT60P8ABWeekonLilBN+RTLTVSeXFZ8iQYmkbSBVVVcV9Su4YtcOOhbwprGOhog06Fh3MjaD6gC/wDsqa9JRW+KEEn5FUNPVB5jFJm/ot3b9o3VV1zXpforuCPFxY6lnCs8WOpgMWPaW7G7XckUKJPqPNc8mvhceFYe5HLhhxx0ZtDQOAu0kjs0ZOFHJ8bGur1Cqt09VvtxT8yudNdntxTNkMDWDaxoaPQCgu4VwguGKwjqMIwWIrCPYYWsG1jQB6AUFMIRgsRWEIxUVhLBmujoIAgCAIAgCAIAgCAIAgCAIAgCAIDGSQNBc4gACySaAA7knyCAq9O8TYeS2R8GVDI2L98c17SGDnlx8hwee3BQGWjeIsTMLhi5MUpZ8QY4OIvsSPT59kBaIAgCAIAgCAIAgCAIAgCAIAgCAIAgCAIAgCAIAgCAIAgCAIAgCAIAgCAIAgIOsaTFlxGHIbujJaS23AO2kOAdR5bY5B4KA+SeCPD8WoatqUxY0YcczWdAACKWSO2t3NHDmN2l23sS5p8kWwe5Y+AcaN/iHVJ4GtZFE1sNMG1u+2B3A4+KF6LYPc+sIAgCAIAgCAIAgCAIAgCAIAgCAIAgCAIAgCAIAgCAIAgCAIAgCA5jXvHGNizjEa2XIySL6GOzqSAeruQGDz5PblAQcb6R4Tlx4ORiZePNKQIxLG2nWasOa42Pn2QHaoAgCA1ZW7Y7pgF+07QeAXVxZ8hahg5H6LPC0umYbosktM0kz5JC07gSaA5oXw0H7VPbA7lH4P8ACWqYU+RGHwRxTZRndkD35nsu+m1hFN3eZPa3VfBRbB7n09AEBHx86KRz445GOdHW9rXAuZd1uAPu3R7+iAkIAgCAIAgCAIAgPA4dkBo9ui6vQ6jOrtDunuG/aSQHbburaefkUBIQBAEAQBAEAQBAEAQBAEAQBAEAQAoD4t9Gurx4utalj5p2ZE8x6bnn4gHvIYCe1tcwj1AHyRbEPc+q6hoEGRkY+VI0mXGLzEbIA3gB1jz4A79kRJaIAgCAIAgCAIDgvH+qzTZWPo2JIY5MkF88rfjix23e30c7aQD8vmi6sPodLgYGHpeMQxscEMYtziQO36T3nlx+ZNoDXh+L8CXHflx5URhjO18hO1rXccG6NmxXrfCAk6D4hxc9hkxJ2ytaacW3YPzB5CAs0AQHI4muTu1ybALh0GYjZWtoXvL2tvd3qieES6Mh9jrkJCApfEUWbJsiwnxRB27qTvBe+McV0462ucbPLjQrsUBwX0LCUZmrsnmfM9k8bDI8kudtdOAfl9XYJ2D3O68U+F4M+OpBtlaLinZ7ssTvJzXjkc+XYqAVf0aeIpcuCWDL/hWHKYJj+uW2A8fyqP2gqe2R3wdigCAIAgCAIAgCAIAgCAIAgCAIDFzwO5AQHH/SB9H2Nq0Zc4BmQ1tRzAc/Jrx+mz5dx5Uo2BT/AEJ67k5GJPj5RL5MSXpBxNkiuGl3mQQRfpSl7ZHfBLwvE+oy5eVgiLGEkLInmS5DDCHtc7ZJyHSv4AFbARuPFAGOw7nQeBNbkz8CDLmY1j5GuJDb28Pc0EXzRDbr5qWQa9T1fUI5Xsg0wTRitsntUce7gE+4Wktokjv5WhJC1HRptXx+lnRzYJZKHN6GQx7njaRy4MoD3jxXkCgKb9x7H/0jqP8Ax2f3aAfuPY/+kdR/47P7tAfQdPxRDFHCHOcI2NYHONuIaA23HzJrkoD5zoZ6nivOLv8AycSNjPkHNgcfxcfvRbMPdH0HU9OhnDeuxr2xvEjQ7loc0GnEdjV3z50fJQD5Z9DujNzHZWpzC435cr4InAbGuPeSuxcA7YD5U6u6nZDuWX0OQtfPqmbG0Njmy3NYAKFMLjY+vqD8U7Ih7n05CTk9bydZbO8YePhvh42OlfI2Q+6N1gcfFdfKkBwWJkax+XZnNgw/afY2hzC+TpCLe2iHd926uO1KVsyHuj6F4eyNXdNWfBiMi2nmF8jn7uK4dxXf8FBJ06AID5b9EX+cdb/903/ryEXsoP2j6kgPmXhA7PEurRt4a6OF5H+ttj5/+7vvRbB7o+moAgCAIAgCAIAgCAIAgCAIAgCA4r6UvD+bn48LMB0bXxTtmO9xbZYDtr3SD7xvmuyjuDGbUNcki6TMDGilIozOyA+Jv+sGBu4/IH8VL6gsfAPhJmlY3RDzJI9xkmkP6chABoeQFUPv80BXYPhzLbj6oSWNyc2ScxEHhrDGI4QTXBAH2Wox0wO+S48E4WRBiRQZEccfSjZGxjHGQgNaAS59AEkgmgOB5ldMhGGp+DMXIldNIcjc+r2ZGRG3gAcNa8NHAHYKCSfoehxYbXMhMhDjuPUlklN1XBe4kDjsEBuzdYxoDU2RFGfR8jGn7iUBJgna9ocxwc09i0gg/UR3QGxAfM9Yb7B4kgy38RZ0Bxy79ETNraCfK9kYH2qF7g9snceJoJpcOePGrqviexlmgHOaWg35VdoEVfgnw6/B0uLCJAkEb9xBsCR5c4m/MAu/BTLqF0KH6MvDup4MUWLOIYoYXyOeWHqSZBeTtHaomC7v4jTe3NyQfRlBIQHF4ekzt1+fLMZ6DsJsbZOKLxI0lve7q/JFsyHujtEJCArtaycmNgOLjtmcTyHS9IAV3va6+fKkB868EaFrGn5OXO/Ex5RmSdRwGRsLHbpHcEsNj84Rz6BO2B3PqZfTdzqFCz6D15UA+cfRXGcrL1HV69zIm6cJ/Wiitu4fXTftBUrYh7n0pCQgCAIAgCAIAgCAIAgCAIAgCAIAgCAIAgCA8KA47Qvo+wMKKXqxsnMhc6WWdrHO2nmrPwtA/tUPYdzm/oHhcG5zo93sZyT7Nd1tBfZbfltMYJ9R6gqexHc+rISVniHQoM+B2Pks3MdR9HNcOzmn9Fw9f6FANPhrTsnGY6LIyvaGtoRPczbMG88SuBqQ9veoE83dqQXKAIAgCAIAgCAIAgOb8U+Hps8iF2UYsQtHVjjbUsps20y37sZFAgNs8i6KAvNPwo8eJkMLAyNjQ1rR2ACAkIAgCAIAgCAIAgCAIAgCAIAgCAIAgCAIAgCAID5drurDWsqTT2ZDYcCB23Kl3ta/IeO8Udn4B5u/7WQZ23h/U8Iudg4TmH2ZjLbHRYxrr2ixxfumx39e6Au0AQBAEAQBAEAQBAEAQBAEAQBAEAQBAEAQBAEAQBAEAQBAEAQBAEAQBAEAQGL22CD2IpAcR+5Dov8A6L/nZP8AeoC78M+D8LTTIcKDpdXbv9+V97b2/G41W49kBfIAgCAIAgCAIAgCAIAgCAIAgCAIAgCAIAgCAIAgCAWgFoAgCAWgCA8tAeoAgCAIAgCAIAgCAIAgCAIAgFoAgFoAgCAWgPLQHqAWgCAIAgCAIAgCAFAc5o+sPMro5jYc5wYaA5B+H7q/wV4Wh9ITlc67dm2ovy7HkaTWzla4WbNvHw7E/LyXjKhjB91wdY45oGltuunHVV1p9Gnk122yWohBPo08lk/sfqW6TwmzXLZnP+HNXdJ+bmNuI3MNAbh5jj0o/ivG9F+kJ2vgt3fVeK/4PL0GslY+CzfdeKJoyX+2dLd7nS3Vx33VfqtXPn67ys/d4c/HJp5svWuX2xn8zTr+bI0tjgNPIc88A+60fP1/oVXpHU2wca6fa6v4Iq1t9kWoVb9X8ESWSPyIWPik2E0SaDvkRz81ojOepojKqXC34Z8y5TlfSpVyw2Vo9p9o6HtP6G/dsb61VLz09X6zyOb2znBj/wDk8/lcztnYkZ8s0DYQZdxdMATtAtp8qV+osv08a05Zbkk3jsXXTtpjBOWW3jbsXE5priO4B/YvUseItm+bxFtHPP1GX2Jsu/3y6iaHbcR2ql4r1d3qEbc/eb+p5T1Nvqasz1f7k04WVVjK5+bG0tXq+rxlXfkaHRqcdLfyN2h5rpoyX1ua4tNdiR5/irdBqZX1Znum0/gWaK+V1eZbp4K6TV5BPuv8wJBGe3eu9/WsMtfYtTn/APPPD8ff8zJLWTV+f6M8PxJ/iDJfFCXsNOsC+PX5rZ6SunTQ5wfXK/U1a62VVLlHfoWURsA/ILdF5SZrWxkuiTncXWHtyXxyH3C8taaHum+B9q8On0hNaqVdns5wn7n7jyatbNaiULPZzheZO1PKeyaBrTQe4hw457LbqrpwuqjF9G3n5GrUWyhbXFbN9RiZL3ZUsZd7rQ0gccWAopvnLV2Vt9Elgiq2ctTODfRYwNeynxiMsdW6RoPbkHy5T0hfOpQ4HvJL4E6y2Vajw92kQNY1OSLJDQ782A0uFDsXUTffzCxa3XW06tRT+7hN/PBk1Wrsq1CivZ6Z+Zb6pldKF0g7gcfWeB+JXqaq/lUymvh9D0NRby6nNfApYtRm9jkkL/fa/bdDjlo9K8yvIhrL/UZ2Sf3k8foebDVXeqSsk/vJ/sSDBlCPqDJB93dRY0DtdWtDq1ir5itT6Z6ov5eqUONWL37DK1R5wxO33XGv+qj3UXa2x6FXx6Pp+pFurm9JzY9H0/U2twsogH2r/ltVq0+razzv+07VGpfXm/kY6rLLDA387b94BdtHIN+X3KNZZdRp44l97KWce8jVTtpoWJdcpZwZvwsoCxlAn0LGgLp6fWJZVv5HTo1KXS38jVFrLjiOmLRvadvyJsAH6uVXD0hL1N3SX3l0+JxDWy9VdrXVdDxuNlFgkGSC4iw3aNp86tQqdZKCsVvXfGFgKrVOHGrOvux0LPTJ3SRtc9pa49wQRyOOx8l6GmsnZUpTjh90bNPOU61KSwyWtBcEAQBAEAQHMafgCeCVvZwmeWn0cKXz+n0y1Gnsj3Um14M8eijnUzXfibXgzDDzTLkwB4p7A9rx8wDz9q5o1Lu1VSn7UVJMrqvduprUvaSaZ08vwn6ivoJ+yz2peyzmMDBMuHG5nEkZc5h+e48favn9PpnbooSh7cctfPb4nj06d2aWMo+1HLXzNmlZvWyw+qPRpw9HB3K60epV+tU9nw4fg0ydNertUpd+Hr4PJ5iTTSTSZEUQe0+40lwbQHp63wlNl9l8764cS9lZeOiFU7p3TuhDK2XXGxu8OyOjkkx5G7T8bW3dA9wD5jt+Kt9GTnVZOixYftJeDLNBKVc50zWO6+Jvb/nA/wCw/rBWL/7P+36li/nn/t+p54m4ELj2bM0lPSvRVP3SQ9I9FW/dJFpmSARvcTwGn9i9K6SVcm9sG21pVt+BzEza05l/rf1nL56Sf2ZDzX6niyT+z4+a/Ulapp0zIy9s8jwOXNuiW+dELRq9JfCrjjZJ43Xh4F2p010K+KNknjdeBJiyoocPqQ8CuL77zxz87WiF9NOi5lW2Pz/9l8baqtLx17fUr2YeQcbo9AUfe3bxus83SwrT6l6Xk8tdeuc9c75Mip1Hq3K4N+uc9zLNzOrgBx+IFrXfWCP28Fdai/nejlJ75SfmmdX3c3RZe/RPzTOmi+EfUF9BD2UexHZGa6OjnMTCbP7Ux38bwfQ80V4dOnjfz4S/F8jyaqI3c6D/ABEWPLc6XHjk/fInlrvnwKKzR1Ep3VVWe3FtPx6blCulK2quftRbz8tyywzWdMD3LGkfOgFvo+7r7E+6Rrq6a2xPukPEpvotHcytof4+tPSjzyo9+JE+kH/Dj34kaM7H6uW+P9bHr7d3H4qjUVK3Wyh74fUqurVmqlB94fU1YuQcj2eE92Euk/3fAv6yuarXqeVU+3WX9v8Ayc128/l1vt1l8OhoP8Cn/wBsf+piof8AIXf7n+pS/wCTt/3P9UThoe+Ifn5eWg0XW3t6ei2P0Zx1dbZbe/oavUOKv+JLb3kKbIL8A2ANrg3jgEAjlZLbXZ6NeezS6eDMtljs0HVbNL5Ms2aKSB/4mft+svQj6OeF/wBWXzN0dC8fxJfM1eIYduOxm4mntG48k9+SfVV+k6+HTRhl7rr3K/SMOHTxjnuupp1bT5o4y8TyPaPjaTR2+dEKrWaS+uvjjZKS7rwK9VproQ4lY2luvAltyMePFBDSYncEdzyed3PqtMbdNXpE0vuPp8/eaI2aeGmTS+4/r7zA6HtG7HnezzAu2/8A5964+zeFcWnscfjlHHqHCuKmbj+aJeg5jpotz63AlpI7GvNavR9876eKe/VeeDRorpW1Zlv1XyLJbjWEAQBAEAKAi4OE2EODb95xcb9SqKNPClNR7vPzKqaY1JqPd5NbtMj6wn5Dx9x4I5HrRVb0dXP5+PvHD0tfN53cmOFilqaysF7WVgj4GG2FgjbdC+/fk2qdPRGiChHZFdNUaocEdjR+SIxI+UWHPaWmjxzVkeh4VPqNStlaujawyr1StWSsW76Mk4WI2FgjZ2Hr39VfRRGmtVw2RbVVGqChHY1zYDXStmshzBQrsRzwfXuVxPTQlbG17o5lRCVis7oyGE3rdfndt2/Krvt6qfV4c7nd8Y+BPJjzeb3xgzy8ZsrSx4sH/H2Lu6mF0HCaymdW1Rsi4yXQrB4dj7GSUt/VLvd+5ef9k17SlJr3Z6GP7Or2cpNe7PQnZmnMljERsNFUG8VXZbLdLXbWq3svoabdPCyHA9v2JVLRjpgvKsaDF2t+3eH7bG2x9nZef9mUpYWcZzjtkxeoVYx1xnOO2S1XoG0rHaJGQ9tuAkcHEWKBBvjjhYJejqXGUeuJPL8zG9DW4yj1xJ5Zr/IDP42b+eVx9mV/jl/kzn1CH4pfNluwUAF6SWFg2pYRGxMNsZe5t++7cb9fkqaqI1Sk4/1PLK66Y1uTXd5Zrn0yN8rZjYc307H61XZo653RuftI4npq52K17o81DSo5iHG2uHZzTTlGp0Vd7UnlNd10ZF+lruab6Nd1ua8TRY43iQue9w7F7t1fUuKPR1VU+Ntyfi84OKtFCE+Ntt+JJ9ib1evzu27PlV396v8AV4c7nd8Y+BdyY8zm98YMMXTWRyPkbe5/f0Hnx6WVzTpK6rJWR3luc16aFc5TjuzX+SI+k+G3bXu3HkXdg8cfJceo1cqVXZvLOfU6+XKvs+po/wAno6oySkem80qfsurGHKWP9zKvs6vGOKXzZKm0uN0XQohnHbvwb7laJ6KqVPIxiPgXT0tcquVjoRvyAz+Nm/nlZ16Mh+OX+TKfs+H4pfM3O0lhjERc8gO3WTbr+v0V70UHUqm20nnfqWvSQdarbeF136k8jilrx0NRBxtJjY18YssebLSbA+r08vuCyV6KquEoL2X27GavSVwjKC2fYi/5Os7CSUN/V3+6s32TXspSx7s9Cj7Or24pY92eha42O2NoYwUB2C9GqqNcVCCwkba641xUYrCNqsOwgCAIAgCAIAgCAIAgCAIAgCAIAgCAIAgCAIAgCAIAgCAIAgCAIAgCAIAgCAIAgCAIAgCAIAgCAIAgCAIAgCAIAgCAIAgCAIAgCAIAgCAIAgCAIAgCAIAgCAIAgCAIAgCAID//2Q==;" vertex="1" parent="7">
                    <mxGeometry x="450" y="90" width="299" height="168" as="geometry"/>
                </mxCell>
            </root>
        </mxGraphModel>
    </diagram>
</mxfile>